<svg xmlns="http://www.w3.org/2000/svg" width="1200" height="760" viewBox="0 0 1200 760" role="img" aria-label="JobMeta dashboard overview mockup">
  <rect width="1200" height="760" fill="#f6f4ef"/>
  <rect x="0" y="0" width="280" height="760" fill="#fffcf6" stroke="#ded9cf"/>
  <rect x="32" y="38" width="38" height="38" rx="10" fill="#2f6f5e"/>
  <text x="32" y="108" fill="#1f2a24" font-family="Arial, sans-serif" font-size="28" font-weight="700">JobMeta</text>
  <text x="32" y="138" fill="#1f2a24" font-family="Arial, sans-serif" font-size="28" font-weight="700">Dashboard</text>
  <text x="32" y="174" fill="#6d756f" font-family="Arial, sans-serif" font-size="15">Lokale Jobdatenbank</text>
  <text x="32" y="196" fill="#6d756f" font-family="Arial, sans-serif" font-size="15">Matching und Notizen</text>

  <text x="32" y="262" fill="#6d756f" font-family="Arial, sans-serif" font-size="13" letter-spacing="2">ÜBERBLICK</text>
  <g font-family="Arial, sans-serif" font-size="19" fill="#1f2a24">
    <text x="32" y="312">Jobs</text><text x="228" y="312" text-anchor="end" font-size="28" font-weight="700">203</text>
    <line x1="32" x2="228" y1="336" y2="336" stroke="#ded9cf"/>
    <text x="32" y="386">Score 70+</text><text x="228" y="386" text-anchor="end" font-size="28" font-weight="700">10</text>
    <line x1="32" x2="228" y1="410" y2="410" stroke="#ded9cf"/>
    <text x="32" y="460">Remote</text><text x="228" y="460" text-anchor="end" font-size="28" font-weight="700">83</text>
    <line x1="32" x2="228" y1="484" y2="484" stroke="#ded9cf"/>
    <text x="32" y="534">Offen</text><text x="228" y="534" text-anchor="end" font-size="28" font-weight="700">203</text>
  </g>

  <g transform="translate(330 44)">
    <rect x="0" y="0" width="190" height="48" rx="10" fill="#2f6f5e"/>
    <text x="95" y="31" fill="#fff" font-family="Arial, sans-serif" font-size="17" text-anchor="middle">Echte Jobs abrufen</text>
    <rect x="206" y="0" width="170" height="48" rx="10" fill="#fffcf6" stroke="#ded9cf"/>
    <text x="291" y="31" fill="#2f6f5e" font-family="Arial, sans-serif" font-size="17" text-anchor="middle">CSV importieren</text>
    <rect x="392" y="0" width="190" height="48" rx="10" fill="#fffcf6" stroke="#ded9cf"/>
    <text x="487" y="31" fill="#2f6f5e" font-family="Arial, sans-serif" font-size="17" text-anchor="middle">Profil aus CV laden</text>

    <g transform="translate(0 92)" font-family="Arial, sans-serif">
      <text x="0" y="0" fill="#6d756f" font-size="13" letter-spacing="1.5">SUCHE</text>
      <rect x="0" y="12" width="210" height="52" rx="9" fill="#fffcf6" stroke="#ded9cf"/>
      <text x="18" y="44" fill="#9a9f99" font-size="15">Titel, Firma, Tags</text>
      <text x="230" y="0" fill="#6d756f" font-size="13" letter-spacing="1.5">STATUS</text>
      <rect x="230" y="12" width="160" height="52" rx="9" fill="#fffcf6" stroke="#ded9cf"/>
      <text x="248" y="44" fill="#1f2a24" font-size="15">Alle</text>
      <text x="410" y="0" fill="#6d756f" font-size="13" letter-spacing="1.5">QUELLE</text>
      <rect x="410" y="12" width="170" height="52" rx="9" fill="#fffcf6" stroke="#ded9cf"/>
      <text x="428" y="44" fill="#1f2a24" font-size="15">Alle</text>
      <text x="600" y="0" fill="#6d756f" font-size="13" letter-spacing="1.5">ANSICHT</text>
      <rect x="600" y="12" width="160" height="52" rx="9" fill="#fffcf6" stroke="#ded9cf"/>
      <text x="618" y="44" fill="#1f2a24" font-size="15">Kompakt</text>
    </g>

    <text x="0" y="218" fill="#2f6f5e" font-family="Arial, sans-serif" font-size="15">203 von 203 Jobs</text>
    <rect x="0" y="246" width="790" height="268" rx="12" fill="#fffcf6" stroke="#ded9cf"/>
    <text x="24" y="286" fill="#1f2a24" font-family="Arial, sans-serif" font-size="20" font-weight="700">Nächste Schritte</text>
    <text x="760" y="286" fill="#6d756f" font-family="Arial, sans-serif" font-size="15" text-anchor="end">5 wichtigste offene Schritte</text>
    <g font-family="Arial, sans-serif">
      <text x="24" y="336" fill="#1f2a24" font-size="19" font-weight="700">Technical Writer / Documentation Specialist</text>
      <text x="24" y="362" fill="#6d756f" font-size="15">Frist: 2026-06-30 | Prio: hoch | Beispiel GmbH</text>
      <rect x="690" y="316" width="76" height="44" rx="9" fill="#fffcf6" stroke="#ded9cf"/>
      <text x="728" y="344" fill="#2f6f5e" font-size="15" text-anchor="middle">Details</text>
      <line x1="24" x2="766" y1="386" y2="386" stroke="#ded9cf"/>
      <text x="24" y="426" fill="#1f2a24" font-size="19" font-weight="700">Junior Data Analyst</text>
      <text x="24" y="452" fill="#6d756f" font-size="15">Prio: mittel | Einstieg prüfen | Demo AG</text>
      <rect x="690" y="406" width="76" height="44" rx="9" fill="#fffcf6" stroke="#ded9cf"/>
      <text x="728" y="434" fill="#2f6f5e" font-size="15" text-anchor="middle">Details</text>
    </g>

    <g transform="translate(0 544)">
      <rect x="0" y="0" width="380" height="126" rx="12" fill="#fffcf6" stroke="#ded9cf"/>
      <text x="24" y="36" fill="#1f2a24" font-family="Arial, sans-serif" font-size="18" font-weight="700">Lernpriorität</text>
      <text x="24" y="76" fill="#1f2a24" font-family="Arial, sans-serif" font-size="28" font-weight="700">Kommunikation</text>
      <text x="24" y="104" fill="#6d756f" font-family="Arial, sans-serif" font-size="14">18 gewichtete Treffer aus Skill-Lücken</text>
      <rect x="400" y="0" width="390" height="126" rx="12" fill="#fffcf6" stroke="#ded9cf"/>
      <text x="424" y="36" fill="#1f2a24" font-family="Arial, sans-serif" font-size="18" font-weight="700">Blockierende Lücken</text>
      <text x="424" y="76" fill="#6d756f" font-family="Arial, sans-serif" font-size="15">Senior-Level kann blockieren</text>
      <text x="760" y="76" fill="#1f2a24" font-family="Arial, sans-serif" font-size="15" font-weight="700">2</text>
    </g>
  </g>
</svg>
