<svg xmlns="http://www.w3.org/2000/svg" width="1200" height="760" viewBox="0 0 1200 760" role="img" aria-label="JobMeta job details mockup">
  <rect width="1200" height="760" fill="#f6f4ef"/>
  <rect x="40" y="40" width="1120" height="680" rx="18" fill="#fffcf6" stroke="#ded9cf"/>
  <text x="80" y="94" fill="#1f2a24" font-family="Arial, sans-serif" font-size="28" font-weight="700">Jobdetails</text>
  <text x="80" y="126" fill="#2f6f5e" font-family="Arial, sans-serif" font-size="18">Beispiel GmbH</text>
  <rect x="980" y="62" width="126" height="44" rx="9" fill="#fffcf6" stroke="#ded9cf"/>
  <text x="1043" y="90" fill="#2f6f5e" font-family="Arial, sans-serif" font-size="16" text-anchor="middle">Schließen</text>

  <g font-family="Arial, sans-serif">
    <rect x="80" y="166" width="180" height="92" rx="10" fill="#eef6f2" stroke="#c9ded5"/>
    <text x="104" y="198" fill="#6d756f" font-size="13" letter-spacing="1.4">SCORE</text>
    <text x="104" y="234" fill="#1f2a24" font-size="30" font-weight="700">74</text>

    <rect x="280" y="166" width="360" height="92" rx="10" fill="#eef6f2" stroke="#c9ded5"/>
    <text x="304" y="198" fill="#6d756f" font-size="13" letter-spacing="1.4">ORT / REMOTE / START</text>
    <text x="304" y="234" fill="#1f2a24" font-size="20" font-weight="700">Hamburg / Hybrid / ab sofort</text>

    <rect x="660" y="166" width="220" height="92" rx="10" fill="#eef6f2" stroke="#c9ded5"/>
    <text x="684" y="198" fill="#6d756f" font-size="13" letter-spacing="1.4">ERFAHRUNG</text>
    <text x="684" y="234" fill="#1f2a24" font-size="20" font-weight="700">Junior geeignet</text>

    <rect x="900" y="166" width="206" height="92" rx="10" fill="#fff7e8" stroke="#ead9b8"/>
    <text x="924" y="198" fill="#6d756f" font-size="13" letter-spacing="1.4">MATCHING</text>
    <text x="924" y="228" fill="#1f2a24" font-size="17">Dokumentation</text>
    <text x="924" y="250" fill="#1f2a24" font-size="17">Metadaten</text>

    <rect x="80" y="286" width="500" height="126" rx="10" fill="#fffcf6" stroke="#ded9cf"/>
    <text x="104" y="320" fill="#6d756f" font-size="13" letter-spacing="1.4">HAUPTAUFGABEN</text>
    <text x="104" y="354" fill="#1f2a24" font-size="18">Knowledge Base pflegen, Inhalte strukturieren,</text>
    <text x="104" y="382" fill="#1f2a24" font-size="18">Anforderungen dokumentieren</text>

    <rect x="606" y="286" width="500" height="126" rx="10" fill="#fffcf6" stroke="#ded9cf"/>
    <text x="630" y="320" fill="#6d756f" font-size="13" letter-spacing="1.4">TOOLS / SYSTEME</text>
    <text x="630" y="354" fill="#1f2a24" font-size="18">Markdown, Confluence, CSV, Ticket-System</text>
    <text x="630" y="382" fill="#1f2a24" font-size="18">Grundlagen SQL erwünscht</text>

    <rect x="80" y="438" width="322" height="116" rx="10" fill="#eef6f2" stroke="#c9ded5"/>
    <text x="104" y="472" fill="#6d756f" font-size="13" letter-spacing="1.4">MUSS-SKILLS</text>
    <text x="104" y="508" fill="#1f2a24" font-size="18">Dokumentation, Recherche,</text>
    <text x="104" y="536" fill="#1f2a24" font-size="18">strukturierte Arbeitsweise</text>

    <rect x="426" y="438" width="322" height="116" rx="10" fill="#fff7e8" stroke="#ead9b8"/>
    <text x="450" y="472" fill="#6d756f" font-size="13" letter-spacing="1.4">SCHNELL LERNBAR</text>
    <text x="450" y="508" fill="#1f2a24" font-size="18">Tool-spezifische Workflows,</text>
    <text x="450" y="536" fill="#1f2a24" font-size="18">interne Prozesse</text>

    <rect x="772" y="438" width="334" height="116" rx="10" fill="#fdeeee" stroke="#e7c4c0"/>
    <text x="796" y="472" fill="#6d756f" font-size="13" letter-spacing="1.4">BLOCKIEREND</text>
    <text x="796" y="508" fill="#1f2a24" font-size="18">Senior-Verantwortung prüfen</text>
    <text x="796" y="536" fill="#1f2a24" font-size="18">keine reine Sales-Rolle</text>

    <text x="80" y="606" fill="#6d756f" font-size="13" letter-spacing="1.4">NÄCHSTE AKTION</text>
    <rect x="80" y="620" width="500" height="48" rx="9" fill="#fffcf6" stroke="#ded9cf"/>
    <text x="100" y="651" fill="#9a9f99" font-size="16">Nächste Aktion einfügen</text>

    <text x="606" y="606" fill="#6d756f" font-size="13" letter-spacing="1.4">NOTIZ</text>
    <rect x="606" y="620" width="360" height="48" rx="9" fill="#fffcf6" stroke="#ded9cf"/>
    <text x="626" y="651" fill="#9a9f99" font-size="16">Notiz einfügen</text>

    <rect x="986" y="620" width="120" height="48" rx="9" fill="#2f6f5e"/>
    <text x="1046" y="651" fill="#fff" font-size="16" text-anchor="middle">Speichern</text>
  </g>
</svg>
